---
config:
  theme: neutral
  look: classic
  themeVariables:
    fontSize: 24px
---
erDiagram
    CARS {
        string id "ID"
        string brand "Марка"
        string model "Модель"
        string licensePlate "Номерний знак"
        string status "Статус"
        string transmissionType "Тип трансмісії"
        string powertrainType "Тип силової установки"
        string bodyType "Тип кузова"
        string driveType "Тип приводу"
        string color "Колір"
        int64 year "Рік випуску"
        int64 mileage "Пробіг"
        int64 pricePerDay "Вартість за добу"
        int64 seats "Кількість місць"
        int64 averageRating "Рейтинг"
        int64 ratingCount "Кількість оцінок"
        map battery "Батарея"
        map engine "Двигун"
        array images "Фотографії"
        boolean isLocked "Доступ"
        geopoint location "Місцезнаходження"
    }

    ENGINE {
        string fuelType "Тип палива"
        int64 displacement "Об'єм двигуна"
    }

    BATTERY {
        int64 capacity "Ємність батареї"
        int64 range "Запас ходу"
    }

    LOCATION {
        int64 latitude "Широта"
        int64 longitude "Довгота"
    }

    USERS {
        string id "ID"
        string firstName "Ім'я"
        string lastName "Прізвище"
        string email "Електронна адреса"
        string phone "Номер телефону"
        string role "Роль"
        string verificationStatus "Верифікація"
        boolean isBlocked "Статус"
        timestamp birthDate "Дата народження"
        timestamp createdAt "Дата створення"
    }

    BOOKINGS {
        string id "ID"
        string carId "ID автомобіля"
        string userId "ID користувача"
        string tripId "ID поїздки"
        string status "Статус"
        int64 price "Вартість"
        timestamp plannedStart "Запланований початок"
        timestamp plannedEnd "Заплановане завершення"
        timestamp expiresAt "Дедлайн оплати"
        timestamp createdAt "Дата створення"
    }

    TRIPS {
        string id "ID поїздки"
        string carId "ID автомобіля"
        string userId "ID користувача"
        string bookingId "ID бронювання"
        string conditionStartId "ID Початкової фотофіксації стану"
        string conditionEndId "ID Кінцевої фотофіксації стану"
        string status "Статус"
        int64 price "Вартість"
        int64 additionalCharge "Доплата"
        int64 totalPrice "Загальна вартість"
        int64 rating "Рейтинг"
        timestamp actualStart "Фактичний початок"
        timestamp actualEnd "Фактичне завершення"
        geopoint startLocation "Початкове місцезнаходження"
        geopoint endLocation "Кінцеве місцезнаходження"
    }

    CAR_CONDITIONS {
        string id "ID"
        string carId "ID автомобіля"
        string userId "ID користувача"
        string tripId "ID поїздки"
        string conditionType "Стан"
        string description "Опис"
        int64 mileage "Пробіг"
        array images "Фотографії"
        map energyLevel "Енергетичний рівень"
        timestamp createdAt "Дата створення"
    }

    ENERGY_LEVEL {
        int64 batteryPercent "Рівень заряду батареї"
        int64 fuelPercent "Рівень пального"
    }

    CARS ||--|| ENGINE : "містить"
    CARS ||--|| BATTERY : "містить"
    CARS ||--|| LOCATION : "має місцезнаходження"

    CARS ||--o| BOOKINGS : "пов’язаний з"
    CARS ||--o| TRIPS : "використовується у"

    USERS ||--o| BOOKINGS : "створює"
    USERS ||--o| TRIPS : "виконує"

    BOOKINGS ||--|| TRIPS : "ініціює"

    TRIPS ||--|| CAR_CONDITIONS : "початкова фотофіксація"
    TRIPS ||--|| CAR_CONDITIONS : "кінцева фотофіксація"

    TRIPS ||--|| LOCATION : "початкове місцезнаходження"
    TRIPS ||--|| LOCATION : "кінцеве місцезнаходження"

    CAR_CONDITIONS ||--|| ENERGY_LEVEL : "містить"